<?xml version="1.0" encoding="UTF-8"?><svg id="Layer_2" xmlns="http://www.w3.org/2000/svg" viewBox="0 0 54.14 54.14"><defs><style>.cls-1{fill:#4b4bfa;stroke-width:0px;}</style></defs><g id="Layer_1-2"><path class="cls-1" d="m27.07,54.14C12.14,54.14,0,42,0,27.07S12.14,0,27.07,0s27.07,12.14,27.07,27.07-12.14,27.07-27.07,27.07Zm0-53.14C12.69,1,1,12.69,1,27.07s11.69,26.07,26.07,26.07,26.07-11.69,26.07-26.07S41.44,1,27.07,1Z"/><path class="cls-1" d="m38.68,20.37v-2.84c0-.11-.09-.21-.21-.21h-4.39v-.02h-17.45v.02h-4.39c-.11,0-.21.09-.21.21v2.84c0,.11.09.21.21.21h10.75c.11,0,.21.09.21.21v19.57c0,.11.09.21.21.21h3.9c.11,0,.21-.09.21-.21v-9.02c0-.11.09-.21.21-.21h10.75c.11,0,.21-.09.21-.21v-2.84c0-.11-.09-.21-.21-.21h-10.75c-.11,0-.21-.09-.21-.21v-6.87c0-.11.09-.21.21-.21h10.75c.11,0,.21-.09.21-.21Z"/></g></svg>